<?xml version="1.0" encoding="UTF-8"?>
<svg id="Capa_2" data-name="Capa 2" xmlns="http://www.w3.org/2000/svg" viewBox="0 0 464.84 110.68">
  <defs>
    <style>
      .cls-1 {
        stroke-width: .93px;
      }

      .cls-1, .cls-2, .cls-3 {
        fill: #588b92;
        stroke: #588b92;
        stroke-miterlimit: 10;
      }

      .cls-2 {
        stroke-width: 1.3px;
      }

      .cls-3 {
        stroke-width: 1.85px;
      }
    </style>
  </defs>
  <g id="Capa_1-2" data-name="Capa 1">
    <g>
      <g>
        <g>
          <path class="cls-1" d="M420.42,49.01c1.43-1.53,3.8.75,2.33,2.24-1.43,1.53-3.8-.75-2.33-2.24Z"/>
          <path class="cls-1" d="M435.81,47c1.43-1.53,3.8.75,2.33,2.24-1.43,1.53-3.8-.75-2.33-2.24Z"/>
          <path class="cls-1" d="M419.87,19.88c1.43-1.53,3.8.75,2.33,2.24-1.43,1.53-3.8-.75-2.33-2.24Z"/>
          <path class="cls-1" d="M439.66,24.36c1.79-1.91,4.75.94,2.91,2.8-1.79,1.91-4.75-.94-2.91-2.8Z"/>
          <path class="cls-1" d="M435.46,21.16c1.25-1.34,3.33.66,2.04,1.96-1.25,1.34-3.33-.66-2.04-1.96Z"/>
          <path class="cls-1" d="M450.18,44.02c1.07-1.15,2.85.56,1.75,1.68-1.07,1.15-2.85-.56-1.75-1.68Z"/>
          <path class="cls-1" d="M453.4,40.96c1.43-1.53,3.8.75,2.33,2.24-1.43,1.53-3.8-.75-2.33-2.24Z"/>
          <path class="cls-1" d="M453.13,26.68c1.43-1.53,3.8.75,2.33,2.24-1.43,1.53-3.8-.75-2.33-2.24Z"/>
          <path class="cls-1" d="M456.91,37.32c1.61-1.72,4.28.85,2.62,2.52-1.61,1.72-4.28-.85-2.62-2.52Z"/>
          <path class="cls-1" d="M457.04,29.6c1.61-1.72,4.28.85,2.62,2.52-1.61,1.72-4.28-.85-2.62-2.52Z"/>
          <path class="cls-1" d="M460.54,32.97c1.97-2.11,5.23,1.03,3.2,3.08-1.97,2.11-5.23-1.03-3.2-3.08Z"/>
          <path class="cls-1" d="M449.65,23.89c1.07-1.15,2.85.56,1.75,1.68-1.07,1.15-2.85-.56-1.75-1.68Z"/>
          <path class="cls-1" d="M425.2,44.63c1.79-1.91,4.75.94,2.91,2.8-1.79,1.91-4.75-.94-2.91-2.8Z"/>
          <path class="cls-1" d="M440.02,43.21c1.79-1.91,4.75.94,2.91,2.8-1.79,1.91-4.75-.94-2.91-2.8Z"/>
          <path class="cls-1" d="M444.49,37.98c2.15-2.3,5.71,1.13,3.49,3.36-2.15,2.3-5.71-1.13-3.49-3.36Z"/>
          <path class="cls-1" d="M444.31,28.28c2.15-2.3,5.71,1.13,3.49,3.36-2.15,2.3-5.71-1.13-3.49-3.36Z"/>
          <path class="cls-1" d="M449.53,32.75c2.51-2.68,6.66,1.32,4.07,3.92-2.51,2.68-6.66-1.32-4.07-3.92Z"/>
          <path class="cls-1" d="M424.79,23.22c1.97-2.11,5.23,1.03,3.2,3.08-1.97,2.11-5.23-1.03-3.2-3.08Z"/>
          <path class="cls-1" d="M430.02,27.69c2.33-2.49,6.18,1.22,3.78,3.64-2.33,2.49-6.18-1.22-3.78-3.64Z"/>
          <path class="cls-1" d="M430.09,38.97c2.33-2.49,6.18,1.22,3.78,3.64-2.33,2.49-6.18-1.22-3.78-3.64Z"/>
          <path class="cls-1" d="M435.96,32.58c2.86-3.06,7.61,1.5,4.66,4.48-2.86,3.06-7.61-1.5-4.66-4.48Z"/>
        </g>
        <g>
          <path class="cls-1" d="M420.42,49.01c1.43-1.53,3.8.75,2.33,2.24-1.43,1.53-3.8-.75-2.33-2.24Z"/>
          <path class="cls-1" d="M435.81,47c1.43-1.53,3.8.75,2.33,2.24-1.43,1.53-3.8-.75-2.33-2.24Z"/>
          <path class="cls-1" d="M419.87,19.88c1.43-1.53,3.8.75,2.33,2.24-1.43,1.53-3.8-.75-2.33-2.24Z"/>
          <path class="cls-1" d="M439.66,24.36c1.79-1.91,4.75.94,2.91,2.8-1.79,1.91-4.75-.94-2.91-2.8Z"/>
          <path class="cls-1" d="M435.46,21.16c1.25-1.34,3.33.66,2.04,1.96-1.25,1.34-3.33-.66-2.04-1.96Z"/>
          <path class="cls-1" d="M450.18,44.02c1.07-1.15,2.85.56,1.75,1.68-1.07,1.15-2.85-.56-1.75-1.68Z"/>
          <path class="cls-1" d="M453.4,40.96c1.43-1.53,3.8.75,2.33,2.24-1.43,1.53-3.8-.75-2.33-2.24Z"/>
          <path class="cls-1" d="M453.13,26.68c1.43-1.53,3.8.75,2.33,2.24-1.43,1.53-3.8-.75-2.33-2.24Z"/>
          <path class="cls-1" d="M456.91,37.32c1.61-1.72,4.28.85,2.62,2.52-1.61,1.72-4.28-.85-2.62-2.52Z"/>
          <path class="cls-1" d="M457.04,29.6c1.61-1.72,4.28.85,2.62,2.52-1.61,1.72-4.28-.85-2.62-2.52Z"/>
          <path class="cls-1" d="M460.54,32.97c1.97-2.11,5.23,1.03,3.2,3.08-1.97,2.11-5.23-1.03-3.2-3.08Z"/>
          <path class="cls-1" d="M449.65,23.89c1.07-1.15,2.85.56,1.75,1.68-1.07,1.15-2.85-.56-1.75-1.68Z"/>
          <path class="cls-1" d="M425.2,44.63c1.79-1.91,4.75.94,2.91,2.8-1.79,1.91-4.75-.94-2.91-2.8Z"/>
          <path class="cls-1" d="M440.02,43.21c1.79-1.91,4.75.94,2.91,2.8-1.79,1.91-4.75-.94-2.91-2.8Z"/>
          <path class="cls-1" d="M444.49,37.98c2.15-2.3,5.71,1.13,3.49,3.36-2.15,2.3-5.71-1.13-3.49-3.36Z"/>
          <path class="cls-1" d="M444.31,28.28c2.15-2.3,5.71,1.13,3.49,3.36-2.15,2.3-5.71-1.13-3.49-3.36Z"/>
          <path class="cls-1" d="M449.53,32.75c2.51-2.68,6.66,1.32,4.07,3.92-2.51,2.68-6.66-1.32-4.07-3.92Z"/>
          <path class="cls-1" d="M424.79,23.22c1.97-2.11,5.23,1.03,3.2,3.08-1.97,2.11-5.23-1.03-3.2-3.08Z"/>
          <path class="cls-1" d="M430.02,27.69c2.33-2.49,6.18,1.22,3.78,3.64-2.33,2.49-6.18-1.22-3.78-3.64Z"/>
          <path class="cls-1" d="M430.09,38.97c2.33-2.49,6.18,1.22,3.78,3.64-2.33,2.49-6.18-1.22-3.78-3.64Z"/>
          <path class="cls-1" d="M435.96,32.58c2.86-3.06,7.61,1.5,4.66,4.48-2.86,3.06-7.61-1.5-4.66-4.48Z"/>
        </g>
      </g>
      <circle class="cls-2" cx="97.17" cy="21.75" r="4.16"/>
      <g>
        <path class="cls-3" d="M66.51,79.22h-1.11l-4.44-18.42H13.85l-11.11,18.42h-1.11L47.72,2.41l18.79,76.81ZM14.41,59.78h46.27L47.26,5,14.41,59.78Z"/>
        <path class="cls-3" d="M74.1,79.22h-1.11L86.03,5.18h1.11l-13.05,74.03Z"/>
        <path class="cls-3" d="M86.87,79.22h-1.11l8.14-46.27h1.11l-8.14,46.27Z"/>
        <path class="cls-3" d="M139.8,86.71l2.59-14.71c-2.41,3.15-5.41,5.64-9.02,7.5-3.61,1.85-7.51,2.78-11.71,2.78-7.16,0-12.91-2.54-17.26-7.63s-6.03-11.24-5.04-18.46c.99-7.16,4.38-13.28,10.18-18.37,5.8-5.09,12.31-7.63,19.53-7.63,8.27,0,14.56,3.42,18.88,10.27l1.3-7.5h1.02l-9.53,54.32h-.09c-1.23,6.23-4.47,11.54-9.72,15.92-5.24,4.38-10.98,6.57-17.21,6.57s-11.44-2.25-15.08-6.76l-.37-.37.93-.74.28.37c3.58,4.32,8.39,6.48,14.44,6.48s11.61-2.16,16.7-6.48c5.09-4.32,8.16-9.5,9.21-15.55ZM142.67,70.06l4.91-28.04c-3.89-7.22-10.15-10.83-18.79-10.83-6.91,0-13.14,2.44-18.69,7.31-5.55,4.87-8.79,10.77-9.72,17.68-.93,6.91.69,12.82,4.86,17.72,4.16,4.91,9.7,7.36,16.61,7.36,4.19,0,8.13-1,11.8-3.01,3.67-2,6.68-4.73,9.02-8.19Z"/>
        <path class="cls-3" d="M161.82,32.95l-1.76,9.99c1.91-3.76,4.72-6.83,8.42-9.21,3.7-2.37,7.59-3.56,11.66-3.56,5.24,0,9.38,1.85,12.4,5.55,3.02,3.7,4.07,8.14,3.15,13.33l-5.27,30.17h-1.02l5.27-30.17c.86-4.87-.14-9.07-3.01-12.59-2.87-3.52-6.77-5.27-11.71-5.27s-9.38,1.74-13.51,5.23c-4.13,3.49-6.63,7.7-7.5,12.63l-5.27,30.17h-1.02l8.14-46.27h1.02Z"/>
        <path class="cls-3" d="M209.02,32.95l-1.76,9.99c1.97-4.01,4.63-7.14,7.96-9.39,3.33-2.25,7.06-3.38,11.2-3.38,4.5,0,8.38,1.39,11.61,4.16s4.98,6.23,5.23,10.36c1.73-4.44,4.38-7.97,7.96-10.6,3.58-2.62,7.59-3.93,12.03-3.93,5.24,0,9.53,1.87,12.86,5.6,3.33,3.73,4.53,8.16,3.61,13.28l-5.27,30.17h-1.02l5.27-30.17c.86-4.87-.28-9.07-3.42-12.59-3.15-3.52-7.22-5.27-12.22-5.27s-9.22,1.73-13.05,5.18c-3.83,3.46-6.17,7.68-7.03,12.68l-5.27,30.17h-1.11l5.27-30.17c.93-5.12-.17-9.38-3.29-12.77-3.12-3.39-7.23-5.09-12.35-5.09-4.81,0-9.15,1.73-13,5.18-3.86,3.46-6.21,7.68-7.08,12.68l-5.27,30.17h-1.02l8.14-46.27h1.02Z"/>
        <path class="cls-3" d="M322.75,75.05l.56.74c-5,4.13-10.61,6.2-16.84,6.2-7.16,0-12.91-2.53-17.26-7.59-4.35-5.06-6.03-11.17-5.04-18.32.99-7.16,4.37-13.26,10.13-18.32,5.77-5.06,12.23-7.59,19.39-7.59s12.43,2.48,16.19,7.45c3.76,4.97,5.15,11.12,4.16,18.46l-.28.83h-48.68c-.68,6.66,1.06,12.34,5.23,17.03,4.16,4.69,9.61,7.03,16.33,7.03,5.8,0,11.17-1.97,16.1-5.92ZM285.27,55.9h47.75c.99-7.03-.28-12.86-3.79-17.49-3.64-4.81-8.88-7.22-15.73-7.22s-12.94,2.42-18.46,7.26c-5.52,4.84-8.78,10.66-9.76,17.44Z"/>
        <path class="cls-3" d="M346.91,32.95l-1.76,9.99c1.91-3.76,4.72-6.83,8.42-9.21,3.7-2.37,7.59-3.56,11.66-3.56,5.24,0,9.38,1.85,12.4,5.55,3.02,3.7,4.07,8.14,3.15,13.33l-5.27,30.17h-1.02l5.27-30.17c.86-4.87-.14-9.07-3.01-12.59-2.87-3.52-6.77-5.27-11.71-5.27s-9.38,1.74-13.51,5.23c-4.13,3.49-6.63,7.7-7.5,12.63l-5.27,30.17h-1.02l8.14-46.27h1.02Z"/>
        <path class="cls-3" d="M406.13,5.18l-4.9,27.76h13.05l-.19,1.02h-13.05l-7.96,45.25h-1.02l7.96-45.25h-9.16l.18-1.02h9.16l4.9-27.76h1.02Z"/>
      </g>
    </g>
  </g>
</svg>