<?xml version="1.0" encoding="UTF-8"?>
<svg id="Capa_2" data-name="Capa 2" xmlns="http://www.w3.org/2000/svg" viewBox="0 0 837.68 140.92">
  <defs>
    <style>
      .cls-1, .cls-2 {
        fill: #de1a4d;
        stroke: #de1a4d;
        stroke-miterlimit: 10;
      }

      .cls-2 {
        stroke-width: 3.27px;
      }
    </style>
  </defs>
  <g id="Capa_1-2" data-name="Capa 1">
    <g>
      <g>
        <circle class="cls-1" cx="558.32" cy="103.61" r="1.93"/>
        <circle class="cls-1" cx="579.99" cy="120" r="2.41"/>
        <circle class="cls-1" cx="586.34" cy="116.98" r="1.69"/>
        <circle class="cls-1" cx="554.28" cy="120.39" r="1.45"/>
        <circle class="cls-1" cx="555.37" cy="125.64" r="1.93"/>
        <circle class="cls-1" cx="570.77" cy="132.98" r="1.93"/>
        <circle class="cls-1" cx="557.16" cy="131.4" r="2.17"/>
        <circle class="cls-1" cx="565.32" cy="135.68" r="2.17"/>
        <circle class="cls-1" cx="559.41" cy="137.77" r="2.65"/>
        <circle class="cls-1" cx="576.06" cy="130.6" r="1.45"/>
        <circle class="cls-1" cx="559.67" cy="110.3" r="2.41"/>
        <circle class="cls-1" cx="562.4" cy="118.03" r="2.89"/>
        <circle class="cls-1" cx="572.87" cy="123.03" r="2.89"/>
        <circle class="cls-1" cx="564.85" cy="126.38" r="3.38"/>
      </g>
      <g>
        <circle class="cls-1" cx="616.21" cy="34.44" r="1.93"/>
        <circle class="cls-1" cx="589.99" cy="27.33" r="2.41"/>
        <circle class="cls-1" cx="585.22" cy="32.5" r="1.69"/>
        <circle class="cls-1" cx="613.69" cy="17.36" r="1.45"/>
        <circle class="cls-1" cx="610.72" cy="12.9" r="1.93"/>
        <circle class="cls-1" cx="593.7" cy="11.83" r="1.93"/>
        <circle class="cls-1" cx="606.91" cy="8.22" r="2.17"/>
        <circle class="cls-1" cx="597.74" cy="7.3" r="2.17"/>
        <circle class="cls-1" cx="602.44" cy="3.15" r="2.65"/>
        <circle class="cls-1" cx="589.67" cy="16.03" r="1.45"/>
        <circle class="cls-1" cx="612.46" cy="28.73" r="2.41"/>
        <circle class="cls-1" cx="607.04" cy="22.58" r="2.89"/>
        <circle class="cls-1" cx="595.46" cy="21.86" r="2.89"/>
        <circle class="cls-1" cx="601.65" cy="15.75" r="3.38"/>
      </g>
      <path class="cls-2" d="M18.64,8.61h22.02c7.5.24,13.32,2.68,17.46,7.34,4.15,4.66,5.94,10.34,5.39,17.05-.4,4.89-2.6,9.65-6.63,14.27-4.03,4.62-8.45,7.4-13.26,8.35,4.81.87,8.53,3.67,11.13,8.41,2.61,4.74,3.43,9.71,2.49,14.92-1.26,7.03-4.68,12.85-10.24,17.47-5.57,4.62-12.45,6.93-20.66,6.93H1.95L18.64,8.61ZM11.42,56.68l-7.93,45.35h23.09c7.42,0,13.89-2.23,19.42-6.69,5.52-4.46,8.84-9.93,9.95-16.4.95-5.45-.1-10.52-3.14-15.21-3.04-4.7-7.2-7.05-12.49-7.05H11.42ZM19.71,9.91l-7.93,45.35h26.88c5.37,0,10.52-2.37,15.45-7.1,4.93-4.74,7.64-9.79,8.11-15.16.55-6.55-1.23-12.04-5.33-16.46-4.11-4.42-9.83-6.63-17.17-6.63h-20.01Z"/>
      <path class="cls-2" d="M121.3,44.13l-6.75,38.6c-1.18,6.79-4.19,12.51-9,17.17-4.82,4.66-10.5,6.99-17.05,6.99-7.74,0-13.68-2.33-17.82-6.99-4.14-4.66-5.62-10.38-4.44-17.17l6.75-38.6h1.3l-6.75,38.6c-1.18,6.39.2,11.8,4.14,16.22,3.95,4.42,9.63,6.63,17.05,6.63,6.16,0,11.49-2.19,15.99-6.57,4.5-4.38,7.34-9.81,8.53-16.28l6.75-38.6h1.3Z"/>
      <path class="cls-2" d="M145.81,70.66c-2.29-.63-4.03-1.16-5.21-1.6-1.18-.43-2.37-1.08-3.55-1.95-1.18-.87-2.09-1.97-2.72-3.31-1.26-2.05-1.74-4.78-1.42-8.17.63-4.18,2.61-7.73,5.92-10.66,3.32-2.92,7.03-4.38,11.13-4.38,3.79,0,6.93,1.24,9.41,3.73,2.49,2.49,3.73,5.55,3.73,9.18l-1.3.36c0-3.39-1.15-6.24-3.43-8.53-2.29-2.29-5.17-3.43-8.64-3.43-3.71,0-7.09,1.34-10.12,4.02-3.04,2.69-4.84,5.92-5.39,9.71-.24,3,.12,5.49,1.07,7.46.87,1.74,2.07,3,3.61,3.79,1.54.79,3.93,1.66,7.16,2.61,3,.87,5.19,1.54,6.57,2.01,1.38.47,2.84,1.26,4.38,2.37,1.54,1.11,2.7,2.48,3.49,4.14,1.58,3.32,2.01,6.75,1.3,10.3-.63,5.13-3.02,9.51-7.16,13.14s-8.78,5.45-13.91,5.45-8.92-1.68-12.08-5.03c-3.16-3.35-4.7-7.6-4.62-12.73l1.3-.24c-.08,4.74,1.36,8.7,4.32,11.9,2.96,3.2,6.73,4.8,11.31,4.8,4.81,0,9.12-1.7,12.91-5.09,3.79-3.39,6-7.46,6.63-12.2.63-3.47.24-6.67-1.18-9.59-.71-1.5-1.8-2.76-3.26-3.79-1.46-1.02-2.78-1.76-3.97-2.19-1.18-.43-3.28-1.13-6.28-2.07Z"/>
      <path class="cls-2" d="M171.19,103.34h-1.42l10.42-59.21h1.42l-10.42,59.21Z"/>
      <path class="cls-2" d="M197.6,44.13l-2.25,12.79c2.45-4.81,6.04-8.74,10.78-11.78,4.74-3.04,9.71-4.56,14.92-4.56,6.71,0,12,2.37,15.87,7.1,3.87,4.74,5.21,10.42,4.03,17.05l-6.75,38.6h-1.3l6.75-38.6c1.1-6.24-.18-11.6-3.85-16.1-3.67-4.5-8.67-6.75-14.98-6.75s-12,2.23-17.29,6.69c-5.29,4.46-8.48,9.85-9.59,16.16l-6.75,38.6h-1.3l10.42-59.21h1.3Z"/>
      <path class="cls-2" d="M296.59,98.01l.71.95c-6.39,5.29-13.58,7.94-21.55,7.94-9.16,0-16.52-3.24-22.08-9.71-5.57-6.47-7.71-14.29-6.45-23.45,1.26-9.16,5.58-16.97,12.97-23.45,7.38-6.47,15.65-9.71,24.81-9.71s15.91,3.18,20.72,9.53c4.81,6.35,6.59,14.23,5.33,23.62l-.36,1.07h-62.28c-.87,8.53,1.36,15.79,6.69,21.79s12.29,9,20.9,9c7.42,0,14.29-2.53,20.6-7.58ZM248.63,73.5h61.1c1.26-9-.36-16.46-4.85-22.38-4.66-6.16-11.37-9.24-20.13-9.24s-16.56,3.1-23.62,9.29c-7.06,6.2-11.23,13.64-12.49,22.32Z"/>
      <path class="cls-2" d="M337.32,70.66c-2.29-.63-4.03-1.16-5.21-1.6-1.18-.43-2.37-1.08-3.55-1.95-1.18-.87-2.09-1.97-2.72-3.31-1.26-2.05-1.74-4.78-1.42-8.17.63-4.18,2.61-7.73,5.92-10.66,3.32-2.92,7.03-4.38,11.13-4.38,3.79,0,6.93,1.24,9.41,3.73,2.49,2.49,3.73,5.55,3.73,9.18l-1.3.36c0-3.39-1.15-6.24-3.43-8.53-2.29-2.29-5.17-3.43-8.64-3.43-3.71,0-7.09,1.34-10.12,4.02-3.04,2.69-4.84,5.92-5.39,9.71-.24,3,.12,5.49,1.07,7.46.87,1.74,2.07,3,3.61,3.79,1.54.79,3.93,1.66,7.16,2.61,3,.87,5.19,1.54,6.57,2.01,1.38.47,2.84,1.26,4.38,2.37,1.54,1.11,2.7,2.48,3.49,4.14,1.58,3.32,2.01,6.75,1.3,10.3-.63,5.13-3.02,9.51-7.16,13.14-4.14,3.63-8.78,5.45-13.91,5.45s-8.92-1.68-12.08-5.03c-3.16-3.35-4.7-7.6-4.62-12.73l1.3-.24c-.08,4.74,1.36,8.7,4.32,11.9,2.96,3.2,6.73,4.8,11.31,4.8,4.81,0,9.12-1.7,12.91-5.09,3.79-3.39,6-7.46,6.63-12.2.63-3.47.24-6.67-1.18-9.59-.71-1.5-1.8-2.76-3.26-3.79-1.46-1.02-2.78-1.76-3.97-2.19-1.18-.43-3.28-1.13-6.28-2.07Z"/>
      <path class="cls-2" d="M382.55,70.66c-2.29-.63-4.03-1.16-5.21-1.6-1.18-.43-2.37-1.08-3.55-1.95-1.18-.87-2.09-1.97-2.72-3.31-1.26-2.05-1.74-4.78-1.42-8.17.63-4.18,2.61-7.73,5.92-10.66,3.32-2.92,7.03-4.38,11.13-4.38,3.79,0,6.93,1.24,9.41,3.73,2.49,2.49,3.73,5.55,3.73,9.18l-1.3.36c0-3.39-1.15-6.24-3.43-8.53-2.29-2.29-5.17-3.43-8.64-3.43-3.71,0-7.09,1.34-10.12,4.02-3.04,2.69-4.84,5.92-5.39,9.71-.24,3,.12,5.49,1.07,7.46.87,1.74,2.07,3,3.61,3.79,1.54.79,3.93,1.66,7.16,2.61,3,.87,5.19,1.54,6.57,2.01,1.38.47,2.84,1.26,4.38,2.37,1.54,1.11,2.7,2.48,3.49,4.14,1.58,3.32,2.01,6.75,1.3,10.3-.63,5.13-3.02,9.51-7.16,13.14-4.14,3.63-8.78,5.45-13.91,5.45s-8.92-1.68-12.08-5.03c-3.16-3.35-4.7-7.6-4.62-12.73l1.3-.24c-.08,4.74,1.36,8.7,4.32,11.9,2.96,3.2,6.73,4.8,11.31,4.8,4.81,0,9.12-1.7,12.91-5.09,3.79-3.39,6-7.46,6.63-12.2.63-3.47.24-6.67-1.18-9.59-.71-1.5-1.8-2.76-3.26-3.79-1.46-1.02-2.78-1.76-3.97-2.19-1.18-.43-3.28-1.13-6.28-2.07Z"/>
      <g>
        <path class="cls-2" d="M466.99,54.92c-7.22-2.14-12.22-4.94-14.98-8.4-2.76-3.46-3.85-8.36-3.26-14.7.59-6.48,3.54-12.05,8.84-16.69,5.31-4.64,11.24-6.96,17.8-6.96,5.97,0,10.91,1.97,14.81,5.92,3.91,3.94,5.97,8.9,6.19,14.87l-1.22.33c-.29-5.67-2.29-10.41-5.97-14.21-3.69-3.79-8.37-5.69-14.04-5.69-5.97,0-11.5,2.21-16.58,6.63-5.09,4.42-7.96,9.69-8.62,15.81-.66,6.12.42,10.82,3.26,14.1,2.84,3.28,7.61,5.88,14.32,7.79,8.84,2.65,14.83,5.69,17.96,9.12,3.13,3.43,4.37,8.75,3.7,15.97-.59,6.71-3.74,12.46-9.45,17.25-5.71,4.79-11.99,7.19-18.85,7.19-6.49,0-11.9-2.27-16.25-6.8-4.35-4.53-6.34-10.04-5.97-16.53l1.33-.22c-.29,6.19,1.6,11.46,5.69,15.81,4.09,4.35,9.23,6.52,15.42,6.52s12.25-2.28,17.74-6.85c5.49-4.57,8.53-10.02,9.12-16.36.66-6.93-.55-12.01-3.65-15.25-3.1-3.24-8.88-6.12-17.36-8.62Z"/>
        <path class="cls-2" d="M520.61,11.47l-5.86,33.17h15.59l-.22,1.22h-15.59l-9.51,54.06h-1.22l9.51-54.06h-10.94l.22-1.22h10.95l5.86-33.17h1.22Z"/>
        <path class="cls-2" d="M541.39,44.64l-1,5.97c1.62-2.72,3.85-4.96,6.69-6.69,2.84-1.73,5.84-2.6,9.01-2.6,3.76,0,6.82,1.18,9.18,3.54l-1,1c-2.21-2.21-5.01-3.32-8.4-3.32-3.91,0-7.48,1.38-10.72,4.15-3.24,2.76-5.2,6.1-5.86,10l-7.63,43.23h-1.22l9.73-55.28h1.22Z"/>
        <path class="cls-2" d="M610.82,99.92l1.55-8.96c-7.22,8.18-15.4,12.27-24.54,12.27-8.55,0-15.42-3.02-20.62-9.07-5.2-6.04-7.2-13.34-6.03-21.89,1.18-8.55,5.22-15.85,12.11-21.89,6.89-6.04,14.61-9.07,23.16-9.07,4.94,0,9.36,1.11,13.27,3.32,3.9,2.21,7,5.23,9.29,9.07l1.55-9.07h1.22l-9.73,55.28h-1.22ZM612.81,88.75l5.75-32.83c-1.84-4.13-4.77-7.39-8.79-9.78-4.02-2.39-8.53-3.59-13.54-3.59-8.18,0-15.59,2.91-22.22,8.73-6.63,5.82-10.5,12.82-11.61,21-1.11,8.18.85,15.18,5.86,21,5.01,5.82,11.61,8.73,19.79,8.73,9.21,0,17.47-4.42,24.76-13.27Z"/>
        <path class="cls-2" d="M650.61,11.47l-5.86,33.17h15.59l-.22,1.22h-15.59l-9.51,54.06h-1.22l9.51-54.06h-10.94l.22-1.22h10.95l5.86-33.17h1.22Z"/>
        <path class="cls-2" d="M705.23,94.94l.66.88c-5.97,4.94-12.68,7.41-20.12,7.41-8.55,0-15.42-3.02-20.62-9.07-5.2-6.04-7.2-13.34-6.03-21.89,1.18-8.55,5.22-15.85,12.11-21.89,6.89-6.04,14.61-9.07,23.16-9.07s14.85,2.97,19.35,8.9c4.49,5.93,6.15,13.29,4.97,22.06l-.33.99h-58.15c-.81,7.96,1.27,14.74,6.25,20.34,4.97,5.6,11.48,8.4,19.51,8.4,6.93,0,13.34-2.36,19.24-7.07ZM660.45,72.06h57.04c1.18-8.4-.33-15.37-4.53-20.89-4.35-5.75-10.61-8.62-18.79-8.62s-15.46,2.89-22.06,8.68c-6.6,5.79-10.48,12.73-11.66,20.84Z"/>
        <path class="cls-2" d="M772.66,108.87l3.1-17.58c-2.87,3.76-6.47,6.74-10.78,8.95-4.31,2.21-8.97,3.32-13.98,3.32-8.55,0-15.42-3.04-20.62-9.12-5.2-6.08-7.2-13.43-6.03-22.05,1.18-8.55,5.23-15.86,12.16-21.95,6.93-6.08,14.7-9.12,23.33-9.12,9.88,0,17.39,4.09,22.55,12.27l1.55-8.96h1.22l-11.39,64.89h-.11c-1.48,7.44-5.35,13.78-11.61,19.01-6.26,5.23-13.12,7.85-20.56,7.85s-13.67-2.69-18.02-8.07l-.44-.44,1.11-.88.33.44c4.28,5.16,10.02,7.74,17.25,7.74s13.87-2.58,19.95-7.74c6.08-5.16,9.75-11.35,11-18.57ZM776.09,88.97l5.86-33.5c-4.64-8.62-12.13-12.93-22.44-12.93-8.26,0-15.7,2.91-22.33,8.73-6.63,5.82-10.5,12.86-11.61,21.12-1.11,8.25.83,15.31,5.8,21.17,4.97,5.86,11.59,8.79,19.84,8.79,5.01,0,9.71-1.2,14.1-3.59,4.38-2.39,7.98-5.66,10.78-9.78Z"/>
        <path class="cls-2" d="M784.05,136.4h-1.33l20.34-36.59-11.06-55.16h1.33l10.72,53.51,29.52-53.51h1.33l-50.85,91.76Z"/>
      </g>
      <circle class="cls-2" cx="183.3" cy="31.55" r="5.19"/>
    </g>
  </g>
</svg>